<?xml version="1.0" encoding="UTF-8" standalone="no"?>
<svg
   xmlns:dc="http://purl.org/dc/elements/1.1/"
   xmlns:cc="http://creativecommons.org/ns#"
   xmlns:rdf="http://www.w3.org/1999/02/22-rdf-syntax-ns#"
   xmlns:svg="http://www.w3.org/2000/svg"
   xmlns="http://www.w3.org/2000/svg"
   xmlns:sodipodi="http://sodipodi.sourceforge.net/DTD/sodipodi-0.dtd"
   xmlns:inkscape="http://www.inkscape.org/namespaces/inkscape"
   height="178.65692"
   width="923.0769"
   viewBox="-150 -48.38625 999.99998 64.834038"
   version="1.1"
   id="svg4"
   sodipodi:docname="facebook-white.svg"
   inkscape:version="1.0.2 (e86c870879, 2021-01-15)">
  <metadata
     id="metadata10">
    <rdf:RDF>
      <cc:Work
         rdf:about="">
        <dc:format>image/svg+xml</dc:format>
        <dc:type
           rdf:resource="http://purl.org/dc/dcmitype/StillImage" />
      </cc:Work>
    </rdf:RDF>
  </metadata>
  <defs
     id="defs8" />
  <sodipodi:namedview
     pagecolor="#ffffff"
     bordercolor="#666666"
     borderopacity="1"
     objecttolerance="10"
     gridtolerance="10"
     guidetolerance="10"
     inkscape:pageopacity="0"
     inkscape:pageshadow="2"
     inkscape:window-width="1920"
     inkscape:window-height="1015"
     id="namedview6"
     showgrid="false"
     inkscape:zoom="0.89375"
     inkscape:cx="461.53846"
     inkscape:cy="295.93071"
     inkscape:window-x="0"
     inkscape:window-y="0"
     inkscape:window-maximized="1"
     inkscape:current-layer="svg4"
     inkscape:document-rotation="0" />
  <path
     d="m -86.65,77.82027 h -37.681 v -93.934 H -150 v -30.583 h 25.668 v -21.762 c 0,-25.788 11.353,-44.283 48.932,-44.283 7.948,0 20.426,1.602 20.426,1.602 v 28.398 H -68.08 c -13.354,0 -18.568,4.062 -18.568,15.292 v 20.753 h 31.174 l -2.776,30.583 h -28.399 z m 86.46,-126.961 c -0.549,0 -1.114,0.02 -1.673,0.034 -34.94,0 -50.926,26.282 -50.926,63.59 0,46.998 20.736,65.808 51.199,65.808 17.429,0 28.88,-7.336 35.84,-21.026 v 18.568 h 35.84 v -124.517 H 34.25 v 19.149 c -5.683,-12.32 -17.454,-21.46 -34.44,-21.606 z m 9.113,29.423 c 14.675,0 23.483,10.2359999 23.483,27.6469999 L 32.44,25.71227 c 0,11.735 -7.275,25.464 -23.517,25.464 -24.97,0 -24.303,-26.962 -24.303,-35.942 0,-30.207 13.304,-34.952 24.303,-34.952 z m 75.641,35.299 c 0,-15.13100012 -0.724,-64.641 63.78,-64.641 25.893,0 36.705,8.233 36.705,8.233 l -8.69,26.953 c 0,0 -10.798,-5.946 -24.868,-5.946 -18.021,0 -29.52,10.4469999 -29.52,28.8279999 l 0.02,13.1800001 c 0,17.662 11.095,29.452 29.537,29.452 12.818,0 24.632,-6.002 24.632,-6.002 l 8.668,26.39 c 0,0 -9.886,8.285 -36.303,8.285 -61.418,0 -63.96,-44.42 -63.96,-64.732 z m 310.628,-64.688 c 34.941,0 51.179,26.282 51.179,63.59 0,46.998 -20.737,65.808 -51.2,65.808 -17.429,0 -30.313,-7.335 -37.273,-21.026 v 18.568 l -35.389,-0.014 v -186.775 l 37.574,-3.277 v 83.011 c 5.423,-14.523 23.245,-19.885 35.11,-19.885 z m -10.534,29.389 c -14.675,0 -24.575,10.2359999 -24.575,27.6469999 L 360.048,25.71227 c -0.022,11.735 6.856,25.464 24.61,25.464 24.97,0 24.303,-26.962 24.303,-35.942 0,-30.207 -13.303,-34.952 -24.303,-34.952 z m -134.415,-29.286 c -39.63,0 -60.552,21.607 -60.552,60.005 v 7.134 c 0,49.837 29.381,62.668 64.409,62.668 34.047,0 49.458,-9.523 49.458,-9.523 l -7.031,-25.36 c 0,0 -18.128,7.713 -37.922,7.713 -20.52,0 -29.345,-5.23 -31.607,-24.95 h 79.564 V 8.3382699 c 0,-41.6519999 -23.481,-57.3429999 -56.32,-57.3429999 z m 0.955,25.394 c 13.718,0 22.607,8.412 22.119,27.9209999 h -46.25 C 227.869,-16.22173 237.455,-23.60873 251.198,-23.60873 Z m 270.094,-25.565 c -40.697,0 -62.122,22.934 -62.122,64.033 0,56.39 36.932,65.467 62.19,65.467 36.976,0 61.576,-19.907 61.576,-64.955 0,-46.887 -27.66,-64.545 -61.644,-64.545 z m -0.512,29.559 c 17.895,0 24.986,13.3929999 24.986,28.6379999 V 22.12927 c 0,18.468 -9.922,29.15 -25.054,29.15 -14.152,0 -24.098,-9.992 -24.098,-29.15 V 9.0222699 c 0,-20.4319999 11.835,-28.6379999 24.166,-28.6379999 z m 137.01,-29.559 c -40.697,0 -62.122,22.934 -62.122,64.033 0,56.39 36.932,65.467 62.19,65.467 36.975,0 61.576,-19.907 61.576,-64.955 0,-46.887 -27.661,-64.545 -61.644,-64.545 z m -0.512,29.559 c 17.895,0 24.985,13.3929999 24.985,28.6379999 V 22.12927 c 0,18.468 -9.922,29.15 -25.053,29.15 -14.152,0 -24.098,-9.992 -24.098,-29.15 V 9.0222699 c 0,-20.4319999 11.835,-28.6379999 24.166,-28.6379999 z m 76.355,97.436 v -186.776 l 37.683,-3.276 v 125.189 l 37.386,-59.653 h 39.796 l -39,61.783 40.502,62.733 h -39.909 l -38.775,-60.914 v 60.914 z"
     fill="#1877f2"
     id="path2"
     style="fill:#ffffff" />
</svg>
