<svg xmlns="http://www.w3.org/2000/svg" height="800" width="1200" viewBox="-39.687495 -22.00025 343.95829 132.0015"><g stroke-linecap="square" stroke-linejoin="bevel"><path d="M259.9255 62.534h-18.5753V39.373h-4.6439v23.161h-18.5754V4.6438h18.5754v16.2024h13.9316l9.2876 9.2645v32.4234m-46.4152-23.1612h-18.5754v4.6438h18.5754v18.529H185.661l-9.2877-9.2645V30.1107l9.2877-9.2645h27.8492V39.373m-41.7738 0H155.483v4.6438h16.2534v18.529h-25.5272l-9.2877-9.2645V4.6438h18.5754v16.2024h16.2535l-.014 18.5267M132.2847 16.214h-18.5754V4.6438h18.5754V16.214m0 46.32h-18.5754V20.8463h18.5754v41.6879m-23.2192 0H53.3787l-9.2877-9.2645V20.8462h18.5754v23.159h4.6439v-23.159h18.5754v23.159h4.6438v-23.159h18.5754l-.0394 41.6879M39.454 39.3729H23.2192v4.6438h16.2535v18.529H13.9315l-9.2877-9.2645V4.6438h18.5754v16.2024h16.2535l-.0186 18.5267M252.9644 16.214h-11.6096V0H215.881l-11.7188 16.214h-20.8207l-6.9658 6.9472V16.214h-16.2534V0H109.077v16.214H37.2483L25.5412 0H0v55.5869l32.4907 32.414h32.4907v-9.2644l9.2877 9.2644h62.6571v-9.2644l9.2877 9.2644h30.1642v-9.2644l9.2877 9.2644h58.0202l20.8973-20.8462V27.7934L252.9644 16.214" fill="#9147fe"/><path d="M218.1518 62.534h18.5661V39.373h4.6415v23.161h18.5661V30.1107l-9.283-9.2645h-13.9246V4.6346h-18.5661V62.534m-81.2256-9.2645l9.2808 9.2645h25.5295V44.005h-16.2442v-4.632h16.2442V20.8462h-16.2442V4.6346h-18.566v48.635m39.4518 0l9.283 9.2645h27.8492V44.005h-18.5661v-4.632h18.566V20.8462h-27.849l-9.2831 9.2645v23.1589m-62.6595-48.635h18.5661V16.214h-18.5661V4.6346M39.454 20.8462H23.2076V4.6346H4.6416v48.635l9.283 9.2645H39.454V44.005H23.2076v-4.632h16.2465V20.8462m4.6416 32.4234l9.2807 9.2645h55.7007V20.8462H90.511v23.159h-4.644v-23.159H67.3033v23.159h-4.6415v-23.159H44.0957v32.4234m69.6229-32.4234h18.5661v41.6879h-18.5661V20.8462" fill="#fff"/></g></svg>